<svg width="74" height="56" viewBox="0 0 74 56" fill="none" xmlns="http://www.w3.org/2000/svg">
<path d="M9.49875 34V22.32H11.3708V27.12H12.8268L15.1308 22.32H17.1468L14.4748 27.92L17.2908 34H15.1948L12.8108 28.8H11.3708V34H9.49875ZM19.1245 34V25.2H20.9805V28.672H24.2445V25.2H26.1005V34H24.2445V30.384H20.9805V34H19.1245ZM32.2063 34.144C31.4703 34.144 30.8303 34.0053 30.2863 33.728C29.7529 33.4507 29.3369 33.056 29.0383 32.544C28.7396 32.0213 28.5903 31.408 28.5903 30.704V28.496C28.5903 27.792 28.7396 27.184 29.0383 26.672C29.3369 26.1493 29.7529 25.7493 30.2863 25.472C30.8303 25.1947 31.4703 25.056 32.2063 25.056C32.9529 25.056 33.5929 25.1947 34.1263 25.472C34.6596 25.7493 35.0756 26.1493 35.3743 26.672C35.6729 27.184 35.8223 27.7867 35.8223 28.48V30.704C35.8223 31.408 35.6729 32.0213 35.3743 32.544C35.0756 33.056 34.6596 33.4507 34.1263 33.728C33.5929 34.0053 32.9529 34.144 32.2063 34.144ZM32.2063 32.512C32.7609 32.512 33.1929 32.3573 33.5023 32.048C33.8116 31.7387 33.9663 31.2907 33.9663 30.704V28.496C33.9663 27.8987 33.8116 27.4507 33.5023 27.152C33.1929 26.8427 32.7609 26.688 32.2063 26.688C31.6623 26.688 31.2303 26.8427 30.9103 27.152C30.6009 27.4507 30.4463 27.8987 30.4463 28.496V30.704C30.4463 31.2907 30.6009 31.7387 30.9103 32.048C31.2303 32.3573 31.6623 32.512 32.2063 32.512ZM38.312 34V25.2H45.288V34H43.432V26.928H40.168V34H38.312ZM47.9538 34V25.2H49.8098V28.704H51.1698L53.4098 25.2H55.5218L52.7858 29.44L55.5698 34H53.4258L51.1698 30.288H49.8098V34H47.9538ZM60.0595 34.16C59.1528 34.16 58.4328 33.9253 57.8995 33.456C57.3768 32.976 57.1155 32.3253 57.1155 31.504C57.1155 30.6507 57.3982 29.9893 57.9635 29.52C58.5395 29.0507 59.3342 28.816 60.3475 28.816H62.6675V28.032C62.6675 27.584 62.5235 27.232 62.2355 26.976C61.9475 26.72 61.5475 26.592 61.0355 26.592C60.5768 26.592 60.1928 26.6933 59.8835 26.896C59.5848 27.088 59.4088 27.3547 59.3555 27.696H57.5315C57.6275 26.8853 57.9955 26.24 58.6355 25.76C59.2862 25.28 60.1022 25.04 61.0835 25.04C62.1502 25.04 62.9928 25.3067 63.6115 25.84C64.2302 26.3733 64.5395 27.0987 64.5395 28.016V34H62.7155V32.432H62.4115L62.7315 32.048C62.7315 32.6987 62.4862 33.216 61.9955 33.6C61.5048 33.9733 60.8595 34.16 60.0595 34.16ZM60.6515 32.752C61.2382 32.752 61.7182 32.6027 62.0915 32.304C62.4755 31.9947 62.6675 31.6053 62.6675 31.136V30.016H60.3795C59.9528 30.016 59.6115 30.1387 59.3555 30.384C59.0995 30.6187 58.9715 30.9387 58.9715 31.344C58.9715 31.7813 59.1208 32.128 59.4195 32.384C59.7182 32.6293 60.1288 32.752 60.6515 32.752Z" fill="#4C4CFF"/>
</svg>
